<mxfile host="app.diagrams.net" agent="Mozilla/5.0 (Windows NT 10.0; Win64; x64) AppleWebKit/537.36 (KHTML, like Gecko) Chrome/131.0.0.0 Safari/537.36" version="26.0.5">
  <diagram name="Page-1" id="SVkG-gyoQAc7iGWja-y7">
    <mxGraphModel grid="1" page="1" gridSize="10" guides="1" tooltips="1" connect="1" arrows="1" fold="1" pageScale="1" pageWidth="850" pageHeight="1100" math="0" shadow="0">
      <root>
        <mxCell id="0" />
        <mxCell id="1" parent="0" />
        <mxCell id="tm_iaFNtzYu6RqR7IWID-1" value="" style="shape=note;whiteSpace=wrap;html=1;backgroundOutline=1;darkOpacity=0.05;strokeColor=#99FFFF;" vertex="1" parent="1">
          <mxGeometry x="110" y="350" width="80" height="100" as="geometry" />
        </mxCell>
        <mxCell id="tm_iaFNtzYu6RqR7IWID-2" value="" style="shape=image;verticalLabelPosition=bottom;verticalAlign=top;imageAspect=0;image=data:image/jpeg,/9j/4AAQSkZJRgABAQEAYABgAAD/2wBDAAoHBwkHBgoJCAkLCwoMDxkQDw4ODx4WFxIZJCAmJSMgIyIoLTkwKCo2KyIjMkQyNjs9QEBAJjBGS0U+Sjk/QD3/2wBDAQsLCw8NDx0QEB09KSMpPT09PT09PT09PT09PT09PT09PT09PT09PT09PT09PT09PT09PT09PT09PT09PT09PT3/wAARCAC0AUADASIAAhEBAxEB/8QAHwAAAQUBAQEBAQEAAAAAAAAAAAECAwQFBgcICQoL/8QAtRAAAgEDAwIEAwUFBAQAAAF9AQIDAAQRBRIhMUEGE1FhByJxFDKBkaEII0KxwRVS0fAkM2JyggkKFhcYGRolJicoKSo0NTY3ODk6Q0RFRkdISUpTVFVWV1hZWmNkZWZnaGlqc3R1dnd4eXqDhIWGh4iJipKTlJWWl5iZmqKjpKWmp6ipqrKztLW2t7i5usLDxMXGx8jJytLT1NXW19jZ2uHi4+Tl5ufo6erx8vP09fb3+Pn6/8QAHwEAAwEBAQEBAQEBAQAAAAAAAAECAwQFBgcICQoL/8QAtREAAgECBAQDBAcFBAQAAQJ3AAECAxEEBSExBhJBUQdhcRMiMoEIFEKRobHBCSMzUvAVYnLRChYkNOEl8RcYGRomJygpKjU2Nzg5OkNERUZHSElKU1RVVldYWVpjZGVmZ2hpanN0dXZ3eHl6goOEhYaHiImKkpOUlZaXmJmaoqOkpaanqKmqsrO0tba3uLm6wsPExcbHyMnK0tPU1dbX2Nna4uPk5ebn6Onq8vP09fb3+Pn6/9oADAMBAAIRAxEAPwD2WkpaY7hFLMQqqMknoBQAye5itoHmmkCRoMljXD614gm1QmKIeXag8L3b3P8AhTdd1l9VucRkraof3a9M/wC0ayq9rCYNQSnPf8j5rMMxdVunSfu/n/wBc+9Gfekor0Txxc+9GfekooAXPvRn3opKAFz70Z96SloAM+9GT60lFAFmxv5tOu1ngI3Dgg9GHoa9A06/i1GzS4hPDdQeqnuDXm1bXhbUDZ6msDH91cnb9G7H+n5VwY7Dqcedbo9XLMY6U1Tl8L/A7qigdKK8M+oCiiigAooooAKKKKACiiigAooooAKKKKACiiigAooooAKKKKACiiigApaSloATNc14u1MxRLYRHDSDdKR/d7D8f6V0ZIUEk4A5JrzbULxr6/nuWz+8bK57L0H6V24Cj7SpzPZHl5riHSo8i3l+RWooor3j5YKKKRjgUAG4ZxnmjcPWutgurbR9AtJDET5ij5VAyzEZJJp914is7W2t5mSRxOpcBQPlUcEn9a82pj3Bc3Lpe17nqrLqajedWzsnt3OP3D1o3iu9a8jWREwTuAO7Hr0q3FEJScnGPasY5vGbaitvP/gHV/YeifPv5f8ABPN94/yKN4/yK9N+yr/eP5UfZV/vH8qv+0/7v4i/sT+/+H/BPMt4/wAijeP8ivTfsq/3j+VH2Vf7x/Kj+0/7v4h/Yn9/8P8AgnmW8f5FAl8tg6EhkO4fUc16b9lX+8fyo+yL6/pS/tK/2R/2Jb7f4f8ABH286z20Uo6SIG/MVJuFQfZF/vH8qX7Iv94/lXlu1z3VoibcKNwqH7Iv94/lR9kX+8fypDJtwo3Cofsi/wB4/lR9kX+8fyoAm3CjcKh+yL/eP5UfZF/vH8qAJtwo3CoPsi/3j+VL9kX+8fyoAm3CjcKg+yL/AHj+VH2Rf7x/KgCfcKNwqH7Iv94/lR9kX+8fyoAm3CjcKh+yL/eP5UfZF/vH8qAJtwpQc1B9kH98/lSQ5SV0zwKALFFAooAKKKQ9DQAtFU5tRjjO2MeYw9On51VbUZ2PBVR7CuCtmWHpOzd35GsaUpEuvTm30O7cfeKbB+PH9a887V2/i9iNFx/elUfzP9K4ivqctjam35nymcybrqPZBRRRXonkBSN900tI33TQB3FlZxX2jWkM0Syp5KEhvpVibRbe4SJJrWF1i+4COF+lO0H/AJBdt/1wT+VadfMVW+ZrofbU6cJQTa6IomyJdXKKWHQ+lSJFMh+XH51aorJJLZbm5B/pH+zR/pH+zU9FMCD/AEj/AGaP9I/2anooAg/0j/Zo/wBI/wBmp6KAIP8ASP8AZo/0j/ZqeigCD/SP9mj/AEj/AGanooAg/wBI/wBmj/SP9mp6KAIP9I/2aP8ASP8AZqeigCD/AEj/AGaP9I/2anooAg/0j/Zo/wBI/wBmp6KAIP8ASP8AZo/0j/ZqeigCD/SP9mj/AEj/AGanooAg/wBIx/DTICTKxbrjmrVVo/8AXyUAWRRQKKAEYhRkkADqaybu8aclUJEY/WptSnPEK9+W/oKz6+ezTGtydGD06/5HVRpr4mFKOtJQOorxDpJfFy50XOPuyqf5j+tcRXoWvW5udEuo1GSE3j8Of6V54Oa/Vstlem15nw2cxarqXdBRRRXonkBSN900tI33TQB6FoP/ACDLb/rgn8q06zNB/wCQXbf9cE/lWnXy9T42fc0f4cfRBRRRUGgUUUUAFFFFABRRRQAUUUUAFFFFABRRRQAUUUUAFFFFABRRRQAUUUUAFFFFABVaL/XyVZqtF/r5KALIpKUVHM2yF29FNTJ8qbYIxZpPNmd/U0ykpa+HnJyk5PqeklZWClHUUlKOoqRm8QGBBAIPBFebajZmwv5rY9Eb5T6r1H6V6Xiua8XaYZoFvYhl4RiQAdV9fwr9JwNb2dSz2Z8xmuHdWjzR3ichRRRXvHywUjfdNRz3KQD5sluyjrVCW/mYHaQg9hXDiMwo4d2k7vsjSNOUtUeq6D/yDLb/AK4J/KtOsnw2S2iWTE5Jtoyf++a1q8OUuZ83c+1pK0EvIKKKKRoFYXim+ubKzga2laJmkwSuORg1u1zfjP8A48bb/rqf5Gt8KlKtFM5MdJxw82nZ2NPQbiW60W2mncvIynLHqeTWjWT4aP8AxT9p/un+Zq9PfW1oyrcTxRFhkB3AJqasf3kkl1ZpQmvYxlJ9EWKKhguobmLzYJEki5+dTkcdeaqy67pkLlXvYcj+6d38qhQlLRI0dWEVdtWNCioLe7gu0328qSr6q2amz7UmmtGUmmroWiqE2uadbyGOW8iDDqAc4/KpBqlk0HnC7g8rON28Yz6VXs572ZCrU27cy+8t0VHBcRXMQlgkWSM9GU5BqK61C1sgDdTxxZ6BjyfwqVFt2tqU5xS5m9CzSVTt9Xsbt9kF1E7/AN3OD+RqSDULS6kMdvcxSuBu2owJxTcJLdCVWEtpI5uHVb1vFv2U3DmD7Q67OMYANdYOtcRb/wDI8f8Ab0/8jXb104yMYuNuyOHLpykqnM7+8xaKoTa3p1u5SW8hDDggNnH5VPbXtveKWtpo5VHUo2cVzOEkrtaHaqsJPlUlcsUUDmipNAooooAKrRf6+SrNVov9fJQBZFVr9tto/vxVkVR1RsQovq1c2MnyYeb8i6avJGZRRRXxh6AUo6ikpR1FAHQ01lDAggEEYIPelor7w8w4LX9FbS7gyRAm1kPyn+4f7p/pWJcTi3iL9WPCj1NepzwR3ELRTIHRhgqe9eb+J9Bms7lpLXdNaJ6csnrn1HvXZUzVUqFpP3tkfPYvK3GftKS93quxzrMXYsxyT1JprdDRnPTpQ33TXgN3d2cvketeGf8AkB2P/XtH/wCg1r1keGf+QHY/9e0f/oNa9ektkfUU/gQUUUUywrm/Gn/Hjbf9dT/6Ca6Sub8af8eFt/11P/oJrown8aJx5h/u0/QbZaxFpPha0ZsPMyHy489eTyfas3TNLufEN297fM3kE/M3Qyf7K+g9/wD9dZRtLlrEXbxubbPlq7dPy9M8fWu40LVIdRsVCKsckQCvGvAX0wPSu6svYRlOnq23d9jysNL61ONOtoklZd/MbrGkNe6UtraMIfLI2JnCEehA7VQt/BcCx/6RczO/+xhVH86u+INZOk26LCoaeXO3d0UDuRWDFZa7rSCZ5nWJ+QZZCoI9lHasKCq+zvz8sTpxX1d1uX2bnK3yREyzeG/ECKkpZNy57b0PqPX/AArX8W6q9rClpC5VpQWkYddvp+PP5Vzeo6fJpl6sEzq74ViVzjk+9X/F4I1n5s7fJXH0ya63TjOrTk9dH87HCq06VGrGPu6rTtcs6b4Sa5tEmu52iLjcsaAZA7ZJqnrWgSaQqyLL5sLnbkjBB967qMqY1K42kDGPSsPxl/yCI/8ArsP5Guaji6s6yTejZ24nL6FPDuUVqluR6NeLp/g8XLDJjL7R6kuQP1rF0zSrnxDdTTzTlVB+eQjJY+gq02T4Eix0E5z9N5rU8GlTpEgH3hM279K0k/ZRqVI781jGEFXnRoz+FRT9SjeeDTHCXtLl3dRnY4HP0I6Gqvg7nWZP+uB/9CFdq/3G+hri/Bv/ACGZP+uB/wDQhU0q06lCpzu9jSthqdDFUvZq12Nt/wDkeP8At5f+Rq74s1eVJBp9uWGQDLt6tnotU7f/AJHj/t6f+Rqt4gD/APCRXGDhzIu0k4xwMHPat1CMq0ObpE5JVZQw9RR6zsa9h4OjNsGvpZfNYZKRnCp7dOaztS0258N3cVxazMUY4Vj1z/db1qx/YniE/wDLyf8AwKao5fDuuTqFmlSRQc4e4J/mKiE3zXnUTXYupSXs7U6MlJbM6zTb1dQsIblOBIMkeh7irVZnh+xm07SlgudvmB2OFbIwTkc1p15dRJTajse/RcnTi57hRRRUGgVWi/18lWDVQzRQSu80iRpnG52AFNaibS1ZcFZmqN+8jX0BNWE1Sxc4W8tyfQSiqN64mumMbBwAPunNeZm7cMM0+rRph5RlPRleijBHYiivlT0ApR1FJSjqKAOhpKMiq097FCDzub+6pr7ipUhTjzTdkeak3sOuZ1ghLcbj90eprFySSe5p80zzvuc/QdhTK+Wx+M+sz934VsdtKnyLUyNR8N2d+xePNvMerRjg/Velc5e+GdRtt3lxrcIO8R5/I8/zruqRqyp4yrTVr3RyV8toVtbWfkW/D4MOiWgl/dlLZNwbjbgc59Kf4f8AEWn+JtON9pc3mwCRoiSMEMp9PcYI9iK4fxjBqz6rpsM2rXkfh/VHTT3t7MIkkcjrjqR8ynBJ7jn2zX1XR20zxDp1j4D1Oeyl1T75jeNrREhUK7Ywdz9Mgd+vWvsIO8UzNR5VynqlFNiVkiRXcu4ADMRjcfXAp1UMK5rxqwFjbZIH709f9010tNeNZBh1DD0IzWlGp7Oan2MMTSdalKmna5kaBFHc+GLeOVQ8ckZUg9CMmubuorjwvqyyRsTGfuMTgSL3U+//AOuu7VAoCqAAOwFI0SP99VbHTIzW1PE8s5Nq6fQ562B9pTgk7SjszlNfUazp9vqVlmWNAVkUclf/ANXemWfjH7PaJHNbB3Rdu4SYBx68V16xqnChVHoBioW0+0eTzGtYC/8AeMYzVRxFPk5JxultqRLB1lU9rTnZvfTQ891LUZNRvluJ1VGfbtUcfLnjr1+tdV4n0l763S5t1LzQjBUdWX29xW4YI2IJjQkeq1HeXcNhbtPcuFRfzJ9AO5pyxTlKHs42sTDAKMKntpX5t3schp3iuewtxbzRLMI/lUltrD2PFVdU1y51lBlAlvG33UyRu9z69a7NIrDU4luFignDDhygJ+lYvi6aCGygs4witv3lFGNqgHt+Nb0atOVZWp2kcuIoVoYd81W8baefzJ9DtUv/AAkLaQ4WQuM+h3HB/OsK1vb7w1eSRyRj5uGR/uv7qa6jw3E0OgWwcYLAvg+hJI/Q1NDfafqkkturRzmM4ZWXIPuM9R7isvbcs6ia5otm/wBW56VKSlyzSVvuOcuvFt1eobe1gWJ5BjKku/4VH4O/5DUn/XA/+hCuouBZ6VZzTiGGFQp+6gBJ7Cub8GRM2oXEuPlSIKT7k5/pWsakHQqckbIwnSqxxVL2k+Z/kQ2zr/wnJG4Z+1ScZ9mrW8TaJJe7bu1TdKq7XQdWHbHuK3xDHu3bE3Z+9t5p+K5pYqXPGcVsrHdDAR9nOnN35nf0OKsPFtxZRiC5iE2wYBZtrj2PFSnxde3N5GlpbKRnmJfnZ/bPauqmsba5OZ7eGQ+rIDTobaG3XbDFHGPRFAqnXoO79nr6kRwmKVo+10XlqPjYtGrMpUkZKnqPanUAUVxHphRQK5fVPiP4c0fVJ9PvLyVbm3IEipbSOFJGeoGOhoA6iuX8XAfYY/8Arv8A0NVP+FseFP8An9uP/AOX/wCJrE8Q/ETw5qFqiW93cMwl3n/Q5BxgjuK3w0lGrFs5cbGUsPOMVd2IcZrHmb/SJGU4yx6UR+K9IkkjjS4m3yMEXdbuoJPQZIqM8k561ecVoTjGMXc+Zp0qlJ++mvXQsR6jew48q7uFx2Ehq1H4j1WP/l8Zv99Vb+YrNor550oPeKOuNerH4ZP7zcj8Xagv31t5PqhH8jVqLxo4I82xQ+6SEfzBrmKUVlLCUX9k3jmGJjtM9TkmkkzudiPQmo6U9TSV4EpSk7ydz7BJIKKKKQwpG6VUutVsrPULOwuLhUur3d5EeD823rz29s9azvG2oXOl+C9UvLKVobiONQki9V3Oqkj0OCea0hSlKUY7c2xLkkm+xsaz4Ss/FlnZwak1ysFtJ5wSJ9nmHbjBOM4we2KjtPhzoWm+IbPWNNgls5rUMBFC/wC6fcu3LKc849MZ75qunw7QKMeKfFQ47akf8Kd/wrtf+hq8V/8AgzP+FfbQXLFI897nYdq5268aafaeNLXw2+43M8W8yA/KjHlUPuQCfy9a5vR9M1DxD4X8Q6Kdd1CKWx1Wa3trx5yZAqBSFdhgsvJz/wDWrntMvPB7/Dx2vY7ZtVkja+e2a+fzJZYtyqwcncpIyQvXDHANUI9nzRXKfDrR59M8L2891qc99JfItzl5GdIwyghU3EnGD1711dABRRRQAUUUUAFUtU0uDVbcRTggg5R16qfWrtFOMnF3W5M4RnFxkrpnFt4X1a1dvsc6FT/EkhjJ+oqay8HzPOJNTmVkzkxoSS/1Y9q66iup42q1Y4I5Xh4u+rXa+hG0SNEYmQFCu0r2x6Vy174QmSbzNNlAXqEckFfowrraKxpV50neLOmvhaVdWmtjih4X1a6cfa50VR/E0jSEfQV1GmabDpVoIIAT3Zm6sfU1doqquJnVVnsRh8FSoPmjv3YCiiisDrCiiigAoNFFAHnR0/UPEnxB8S2jeItXsILD7N5MVpNsXDx5PGPUfrVn4fWLaZ4p8XWj3dxeNFcW4M9y26R/3ZPJ/HH4U/U7hPCfxIXVLxhHpet26W0k7cLFcJ9zcewK8Z+vYVJ4bEw8Z+OBBsE3nW/l+YDt3eTxnHOOlAHV6lfwaXp9xfXcmy3t42kkb0AGfzqvoGuWniPRrfU9PZzb3CkqHwGUg4IIBOCCK86s117xtqlx4f8AFWpwWJtplluNMitcfaYlIIKuTypP5YFTeIotS8CahIvhfU4mbVrnzbbRTaByZDgOVYEbV79gP1oA0vjCjS+GNOjWRoy+qwqHQ4K5D8j3rzKa3uNO1PTgNSvZ1nmZHSWTIwBn+tej/ET7c3g/w/8A2oIftx1W284QA7N+GyFzzXA3RW98VJHAweDTt5d1OVMjcbQe+B/I1FWL5eboedjJNTS6Wd/69TTpKKK848UWjvSUo60AeoHqaSlPU0lfLn3wVT1aPUJtKuI9Hmigvyv7mSVAy59MHjnpntVyoLrUbLTfLe+vbW1Dn5DPMse7HXGTzVQvzLlVxPY43R/D9v4k8PXeu65qV6dZg+UTGJA9o9uSzCJV4YZz06+xrP1C41q/+FWt3+s3YnhuViezVokWQReauGfZxkjHHarFv4a8FRW8iz+I4J7hmZkuTqSI8JYknYAcDrznOaTxJc6Np/wru9Hsdbs714okSMLcI0j/AL1W6Kewz+Ar6GrXhVdONOGzXTp5djkUGk22exL90fSlpF+6PpS17JgeX6F4ottF1DxVZXGmaveedrNwxaytTKgBCjBYHg8Hj6UkV74Ph0d9LTwPrf2R+WDaYxYn13k7s88HPFdD8P8A/j48V/8AYeuP5JXYfjQByPhvxdpDT2OhW2n6ppo8ox2iX1s0YcIvKqxJyQOea66uQ8UKzePfBhVWIWa6yQMgfuu9dfQAUUUUAFFFFABRRRQAUUUUAFFFFABRRRQAUUUUAFFFFABRRmjNAFbUNPtdVsZbO+gjntpl2vG4yCP89+1cDounW/w88evY+ZN/ZeuRKLeWd92yeMkCLd/utxn2HNej5rO1vQ7HxFpcun6nCJbeTnrhkbsynsRQBx+u6X4pufiM97odvbQQrp62qX1ycrFlyzFUHLN25GPWoU0bxfD470C51L7PqNraedE2oQKI3aN06SJnggjjb1+tIb7xb4X8QWvh60ubXXY5oHmga9zFKqKcbS4OGPuRz7VU1/xV4y/tSDRpY7DR3uoGmMsDGeRUBwQCeAT9PxFVGLk0kTOahFylsh3xMu4vEWtWPhqCRvLtG+2XzxnmM7cIuezHcfwINZDaXb2FkkdlEsUcYwVXv7k9z71Z03TINMgaOHe7SNvllkbc8rd2Y9zVuvXjl8XRcJ7vr2Plsbj3XqXj8K/HzMOkq5d2RQl4hlOpUdRVPtmvma+HnQnyTRMZKSugpe9JSjrWBR6geppKU9TSV8uffBXOpptlqvxYMOo2dvdxJoasqTxiRVPnHkAjGea0tX1yx0OKKTUHmVZWKp5UDScjrnaOOtctZ+N9Hg+Ij6q73f2P+yhah/scmfM83djGM9O9erlNOarKbWlnqc9d+7Y9B/4Q7w5/0L+k/wDgFH/hXKfFDw3oun/DrVbiy0fT7edPK2yw2yIy5lQHBAyOCRWl/wALV8Nf89r3/wAApf8ACuc+IPj3Rtf8D6jpuntdyXU/l7Fa0kUHEiseSPQGvpuZdzlseqL90fSlrjR8VPDQA/fXv/gFL/hQPir4a/57Xv8A4BS/4Ucy7isO+H3/AB8eK/8AsPXH8krsK8r8I+PdF0mXXmu2vEF5q011Di0kO6NguDwOOh4rov8Ahavhr/nre/8AgFL/AIUcy7hY0de1240zxL4esIhF5GoyTrMXHICR7hg545rV+3f7Uf515n4l8c6NqfiXw5d2zXjQWMk7TsbSQFQ0eBwRzz6Vpf8ACf8Ah/8A57X3/gBL/hXDisVVpSSpw5kaQhFrV2O6+3f7Uf50fbv9qP8AOuF/4T/w/wD89b3/AMAJf8KP+E/8P/8APW9/8AJf8K5f7QxP/Pn8y/ZQ/mO6+3f7Uf50fbR/ej/OuP07xdo+q30dpZyXRmkyVElpIi8DJyxGBXU2FlnE0o/3VP8AOqpY/EVKip+zs/mEqUEr3Lfny/3P0o8+X+5+lT4oxXrmBB58v9z9KPPl/ufpU+KXFAFfz5f7n6UefL/c/SrGKTFAEHny/wBz9KPPl/ufpU+KMUAQefL/AHP0o8+X+5+lT4oxQBB58v8Ac/SmtcuilnUKqjJJ4AFWcUhUMpDAEEYIPegCh/a9v/z9Wv8A38H+NH9sW/8Az9Wv/f0f41xGr6f/AGbqUsGPkzujPqp6f4fhWTqGpWumRJJds4WQkL5cTP0+nSvUWBpuPPzaHhPNayqOnyanpv8AbFv/AM/Vr/39H+NOTVIGZR9ot8EgZEgryH/hK9I/56XP/gK/+FZ2l3Hh7ULnUrjXdX1+1drtvsyWokCmHjBwFODnPFc9WjSpq8ZXOvD4qvVbUocvrc6mzvvFXifxIniTStL05obLz7GNJLgruG7kmqnjGDxbDcnxRqWl6bHFYWphZI7lmyGfr9cmqtqfBFjD5Vp4m8WwR7i2yJpVGT1OAnWnXMvgq9t3t7rxP4umhcYeOR5mVu/IKYNcseaLujvkozi4y2ZqIGaNW2sAyhunqKK5TXD4atdM8zw/rXiGe+WWPak/mbNu75v4R296028W6RuOJbnGf+fV/wDCvcoYyE172h8ticuqUmuT3r9jYqCazilOcbW9VqpZ6/Yahcrb2zzmRgSN0DqOPcitKtpwpYiNpK6OKUZ0naSszObTpR91lYflTRYT5+6v/fVadKOtcMsnw7el18yvbzR2Z6mkpzqyOVYEEdjTa/LWmnZn6UAJHQkfQ0u9v7zfnSUUALvb+8350b2/vN+dJRQAu9v7zfnRvb+8350lFAC72/vN+dG9v7zfnSUUALvb+8350b2/vN+dJRQAu9v7zfnRvb+8350lWLS0Ny2W4jHU+vsK0pUpVZqEFdsmTUVdkllbtOweQsYweAT96tTFCqFACgADoBS19bhMJHDU+Vb9WcM5ubuFFFFdZAUUUUAFFFFABRRRQAUUUUAFJilooAwPFmnfaLBbmMfvLfk+6Hr+XX864sEjoSK9RdQ4KsAVYYIPcV5xqli2nahLbnO1TlCe6np/n2r18urXTps+dzjD8slWj10ZV3N/eP50u5v7x/Om0tepY8QNzep/Ojc3qfzpKKAF3t6n86N7f3j+dJRSsApYnqT+dJRRTAKUdaKB1oA9LuoElhYsvKjIPcVkbRRRX5fnKSrRa7H6Rh37obRRtFFFeOdAbRRtFFFABtFG0UUUAG0UbRRRQAbRRtFFFAEkMSySorZwxwa2lRUUBRgDsKKK+gyRK035nJiN0Oooor3TnCiiigAooooAKKKKACiiigAooooAKKKKAEPWuX8ZwJ5drNj95uZM+3WiiurB/wAeJw5l/usv66o5XaKNooor6E+QDaKNooooANoo2iiigA2ijaKKKADaKUKMiiikB//Z;" vertex="1" parent="1">
          <mxGeometry x="80" y="120" width="150" height="120" as="geometry" />
        </mxCell>
        <mxCell id="tm_iaFNtzYu6RqR7IWID-3" value="" style="shape=singleArrow;direction=south;whiteSpace=wrap;html=1;" vertex="1" parent="1">
          <mxGeometry x="120" y="240" width="60" height="100" as="geometry" />
        </mxCell>
        <mxCell id="tm_iaFNtzYu6RqR7IWID-4" value="Download from Kaggle" style="text;html=1;align=center;verticalAlign=middle;whiteSpace=wrap;rounded=0;" vertex="1" parent="1">
          <mxGeometry x="80" y="270" width="150" height="30" as="geometry" />
        </mxCell>
        <mxCell id="tm_iaFNtzYu6RqR7IWID-5" value="Python" style="text;html=1;align=center;verticalAlign=middle;whiteSpace=wrap;rounded=0;" vertex="1" parent="1">
          <mxGeometry x="80" y="460" width="130" height="30" as="geometry" />
        </mxCell>
        <mxCell id="tm_iaFNtzYu6RqR7IWID-6" value="" style="shape=note;whiteSpace=wrap;html=1;backgroundOutline=1;darkOpacity=0.05;" vertex="1" parent="1">
          <mxGeometry x="360" y="350" width="80" height="100" as="geometry" />
        </mxCell>
        <mxCell id="tm_iaFNtzYu6RqR7IWID-9" value="" style="shape=singleArrow;whiteSpace=wrap;html=1;" vertex="1" parent="1">
          <mxGeometry x="200" y="370" width="160" height="60" as="geometry" />
        </mxCell>
        <mxCell id="tm_iaFNtzYu6RqR7IWID-10" value="Python Pandas" style="text;html=1;align=center;verticalAlign=middle;whiteSpace=wrap;rounded=0;" vertex="1" parent="1">
          <mxGeometry x="352.5" y="470" width="95" height="30" as="geometry" />
        </mxCell>
        <mxCell id="tm_iaFNtzYu6RqR7IWID-13" value="Data Cleaning" style="text;html=1;align=center;verticalAlign=middle;whiteSpace=wrap;rounded=0;" vertex="1" parent="1">
          <mxGeometry x="220" y="385" width="110" height="30" as="geometry" />
        </mxCell>
        <mxCell id="tm_iaFNtzYu6RqR7IWID-14" value="" style="shape=image;verticalLabelPosition=bottom;verticalAlign=top;imageAspect=0;image=data:image/jpeg,/9j/4AAQSkZJRgABAQEAYABgAAD/2wBDAAoHBwkHBgoJCAkLCwoMDxkQDw4ODx4WFxIZJCAmJSMgIyIoLTkwKCo2KyIjMkQyNjs9QEBAJjBGS0U+Sjk/QD3/2wBDAQsLCw8NDx0QEB09KSMpPT09PT09PT09PT09PT09PT09PT09PT09PT09PT09PT09PT09PT09PT09PT09PT09PT3/wAARCAC0ALQDASIAAhEBAxEB/8QAHwAAAQUBAQEBAQEAAAAAAAAAAAECAwQFBgcICQoL/8QAtRAAAgEDAwIEAwUFBAQAAAF9AQIDAAQRBRIhMUEGE1FhByJxFDKBkaEII0KxwRVS0fAkM2JyggkKFhcYGRolJicoKSo0NTY3ODk6Q0RFRkdISUpTVFVWV1hZWmNkZWZnaGlqc3R1dnd4eXqDhIWGh4iJipKTlJWWl5iZmqKjpKWmp6ipqrKztLW2t7i5usLDxMXGx8jJytLT1NXW19jZ2uHi4+Tl5ufo6erx8vP09fb3+Pn6/8QAHwEAAwEBAQEBAQEBAQAAAAAAAAECAwQFBgcICQoL/8QAtREAAgECBAQDBAcFBAQAAQJ3AAECAxEEBSExBhJBUQdhcRMiMoEIFEKRobHBCSMzUvAVYnLRChYkNOEl8RcYGRomJygpKjU2Nzg5OkNERUZHSElKU1RVVldYWVpjZGVmZ2hpanN0dXZ3eHl6goOEhYaHiImKkpOUlZaXmJmaoqOkpaanqKmqsrO0tba3uLm6wsPExcbHyMnK0tPU1dbX2Nna4uPk5ebn6Onq8vP09fb3+Pn6/9oADAMBAAIRAxEAPwD2SiiigAooooAKKKKACiiigAooooAKKKKACiiigAooooAKKKKACiiigAooooAWikooAKKKKACiiigAzRWD411bUND8KXuo6TDDLdQBWCzfd27hu4yM8Z4z/hUHhnxnpms6BZ3lzqmnJdSwq08SzBPLfuu1jkYPrQB0tFQ215bXsZktLiKeMHaWicMAfTI71NQAUUUUAFFFFABRR0pMj1/WgBaKKKACiiigAooooAKKKKAFopKKACiiigAooooAy/EukWOueH7uw1SRorKRQ0zhwm1VYPnceAPl59q8gs9A+GWo31zbWd1q8wtreS4kmU4QIgy2MqCePavRfinbXl18O9VjsFZpNqM6oOWQOC36DP0BrznTvE/gy08QaVcQxpBpsejyW91CbcktIeqNx85Pr096APUPAmlaJpXhxB4buXudPuZDOsjvuJJAB7DGNuMEZBronkWNSzsFUdzXn3wZhki8J3tx5Lw2dxfSS2sbckR4A4/EY/A1vX91NKkki8yAfIPT6U0rkuVjXfVI9+yFWkb8hVO4123hO2bULeN/+ecS+a35DNcHBfPqfmG4lcQhsCENjPu3cmrn2+KzURwxqD12qMAU7CudM2vI/MUeozfXEYP51GdRmf7tgB/10uSf5CueXUJpTncFz/dFWYnLfeYn6mqsS5Gqbu5/597RfqzH+tRteXA/gtB+Lf41FEIiOaJRFjinYVxH1G5X+G2/B2FQNrd1F0DD/cuKhm281nz45pWC5qDxddw/8tJgP9tA4/PrVu38endiWKGUf9M22N+Rrjp8DNZ1xg9TSshqTPXbDxTpuoSCJZjDMeBHMNpP0PQ/nWxXgSzyFtpYlPfnFeg/DrxDc3s0+mXUjSiGISxOxyVGcFc+nIxSaLTO8oooqShaKSigAooooAKKKKAMnxRfalpnh26u9Gsxe38Wwx2+0tvG8BuBz93JrzPTvFvgO/1Db4j8MQaRqO79559ruj3e+AD+a/jXpnijWZPD/h661KCze9lh2BLdCQZGZwoAwD/e9K83u9B8dfEZAusw2Gjac2CEeANLj1AOXB+pWgD1K0u7O800S6bPBNa7CEaBwyYA6DHHHpWBbzCRAOjAVa8JeErbwb4fk061nlnDO0zySYGWKgHAHQfKOOayI+1a01uZVXawXnh6zuZDMge3mbkyRHGT7joazbjw5dg5jmhlx0LZQ/1Fb8Vw64Gcj0NWkmib78fPqtNohM48abqEJw1sxA7qQakU3EZ+aCYH3Q11pa17u6fWlAtSeLtF+vFIdjlRdOOqOMdflNIbxiOjfka6swQOMC/gH1Yf41Xk06I5J1S0A/3h/jRdDszlZLlj/C35GqkryH+BvxFdPNp9oAfM1m0H0Of61nTwaRH/AKzVt/8A1yjJ/oaLhZnOyq564H1NUpYxn5myT2FbtxdaLD9xLq4I/vfKP8/hWZca5tO2ysooie+NzGlcaRSNpIUJ2eWg5LNxXS/DB438U3ixHcEszlv7xLr/AIVzE9nf3sEtxdyFI40LBW749FHT8a3vhF/yMt//ANeg/wDQxSZSPXKKKKgsWiiigBKKKKACiiigDkPipHFJ8OtV8/ztqiMjyT827zFC/UZIzXBeGvjKmjaBZadc6FO7WkKxCSKTh8cZwRwfxr1bxRr8Phfw7eatcIZFt1G2MHBdiQFGe2SRz2Ga4DSPFvji81vyL+3t4Xu9LmvLKzRFBLAfu9xJyOexI96AOz8I+LI/GOgz6hFZyWqpK8OyRsk4UHPT3/SsmPoK0PA/it/FvhyW5uoBb3tvI9vcxDOA4HUZ5AOenbkVRVSMemODWtLqY1ehMvap0qBe1TpVszQ2WqUtXZe9Upakopy9+BVKXHPAq7L1NUpe9IZTlqnKetXJapyd6BjIo45B8ygketXYY1T7qhfoKo27YuAOzcVpRipZSEvB/wASu6/65N/Kj4Rf8jLf/wDXoP8A0MUuoMsWlXLSMqho2UbjjJx0HrUnwmgaLxBetJ8pa0GFPXG8c0mNbnq9FFFSWFFLRQAlFFVdTv4tM0y6vZ2KxW0LyuQu7AUZPHf6UAWs0ZzXnWn6n42ufEOpwxXnh2Ty4rd9snm+UocMQUwc845yT2xXUeHbbWkuL251y/tJ5Jiix29nu8qAKDkjdzls5P0oAd4x8Or4q8L3mlGQRPMAY5COFdSCM+3GD7GvLzB8S7XXbS5/saG4vLO0ayiuMqVZSfvk7wN3uce4rfsdc8QeLPiddxWF4lpoehXHl3EW7HnfeU5x97JVsZ4AA79eYsLfxD8Vtc1i/tNbn0+0s3xaRgsF5zsXCkYOBktycnp6AHo3gTwrdeFvDE8N5OsupXcj3M7g5AdhjGe+MdfUmuc0XxPG4Fpqm23u4/kcSDCsw7g9vx/Ctf4W+Ir7xB4PmGqOZbyyme3eRvvOAoIJPc84z3xVS90ex1VV+1RkSgYE0fDfj6/jWkLmdS2lzajWFwCG2Z6HqKnS2Y/cZW/GuNTwxq+nMW0jUBKn9zdsP4g5BqUazr+mn/TtNLgdW8oj/wAeXiquRY6qa2mH/LNvwqhNDKOsb/8AfJrLj8cDIWSGWNvRZQf0IFWl8aD+F5R7NEppXHYimyp5BH1qjKRzzWv/AMJrIv3JEPu0JqNvHd0OjRf9+j/jSuw0MOSN2+7G7fRSahOn3kmdlpcHPT92R/Otafx1fNnbIi/SEf1rKuvGOouDm8kX/dCr/Ki47IRNA1Mur/ZSgBzl2Ap9wDaD/SL62hI/hjG9v8/hWPNqV5fHAaecntln/lUX9japOu77OYk7tIdo/wAaQwvdTt1fdErzyjpLOc4+g/8A1V0Hwmnlm8UX7ucq9p1I6kOOn51zY0iFBIzyPdtGpZ1hHyLj1b/P0rp/hTN5/ii+IVUVLPCKvRRvFJjR6xRRRUli0UUUAJTJYkmjeOVVeN1KsrDIYHqCPSn0UAeX3/hHRv8AhKL2w0DwzY3txHDFJctdzGO3ts52qoALFmAJPbgV0ngdLG0bUrCDRYdIv7WRBdQwvvRwVyjq3cEZ7ZByDVXxItvZ+Ibm707xENH1AWP2i+RrUXCPBGcB2Xsw3YGDk9MVZ8AtaXFvf3Yvbu81OeVDeyXdv9nkzsHljy+irtIIxnOTzQByHiDwb4w0jxDrU/hHy5rPXMm4BdFaMtnP3iP7zYI7GtC28P8AiDwB8OorLw7bpe61d3ObhlG4RblI3LkgfLtUZPGSTivTKQ0Acj8PPCc3hHwm1teur3tw7Tz7TkKxAAXPfAA/Emq0fQV1On6xYa3YSXOmXcV1ApZC8TZAYDJH6iuWj6D6VrS6mNXoWUPSrUNxIn3XNVF7VOlWyEPnmSTPnW9vL/vxg1Rkj0o/6zR7U/7o2/yFWZe9UpaixV2NePQf49FUkekpqF28OKP+QFn/ALbH/Go5epqlL3pWHzMsSXehR/6vw/Ccf3pCf6Gq0mt2sWfsui2ER9dmf8KqS1Tk70WC5an8RahMQkbxQgkACOMCpjbJcNuuN0x/6aMWH5dKzLSLzLxPRfmNbcY6UmUht6gTRrtVAVRC2ABgdKrfCL/kZb//AK9B/wChirmoD/iUXn/XB/5VT+EX/Iy3/wD16D/0MUmUj1yiiipKFooooASiiigDzTx3Z2djrU5v9Zs7XTtbNv8AboHjke4ZYSSBEEB4boSRxz64ro/Byx31xquvrqFpeHUplVfsudkUcYIRTnnfg5bIHJ9MVTvJp9A8b6lqa6bc6tFdW0Ef+hbJJ7Qru+QoWBCN97I7g1d8J2V4dS1rV7qybT49SljaK0cjeoRcF3AJAZj1HsO/NAHRtcwoxVpowR1BYCmm7t8H9/F0/vivMfF/wy8LpqF3rOt69PY/a5mkwzRgEk5IUYyevvXNWHgr4dalcrb2vi64MrHaqyAR7j6AsgBoA634IEL8P7wsQAL2Ukn/AK5pWvEokRXjIYEA8Gk8CWug6Lbat4c0jUZr2a0md7lZVwVJUKQCAAR8uPrmuZSXUvC2IzGbzTF/1TjrGPTPb8eK0puxlUVzrVBB5GKmSsnT/FenXagNMqN/dmG39elbkL2867lBx6o24fpVtmdivLVKWtaSCB+lxtP+0KgfS/M+5dQE+7YpXKsYkvU1Sl710L+HrqQnZLbn/gf/ANaoH8J6g38dqB6mQ/4UrodmczLVKTvXUy+FLof6y7sk9zLVGXw9bxZ+0azZr/uc/wBaVx2Zm6fHhGfu54+grQ3pCu6V0jUd3YAfrVeVNJtlIfU7qbH8MK7R/L+tZVzqmnwHNrZAuOjzvuOaQzSvtXgmsZ7e0R7hpYym8Dai575PX8Kn+FSRw+I76NGV3FoC7Dp98cCuNvNUub5vLDEg9I0GB+Vdb8KbZoPFF35uPMNkcqD9wb1x/KkyketUUUVJQtFJRQAUUUyeeK2gknnkSKGJS7yO21VUckknoBQBxWqafdN49nXRfEQ0+9vLWN57dNPE4KpkK7uThTyQOmcfStPwbe3V5Dei91l9Qmhm8to5LEWklucdCnU54IPpWTq+oR6F4nuNT0rWPD+7UYITc22oXohb5QQjowzwVboR2yDWh4KC3V1q2qzappl9f3jxiZdNl8yGBUUhFznJP3iSf5CgDidP0KH4j/E3xDNrrSSWWkS/ZorZXKgjcyjkcgfIzHGOT1rR8e/DjRLfw2ToXh6R9SklSGA2zv8AIWP3n5I2jHU+o6daj8QaF4l8G+MLzxH4TtRf2l/811abSxDE5Pyjk88gjpkg8dadz488e+IIGsNK8Lz2M0o2NcNG4Mee4ZsKp9zQBofBGKKPwrqqiFUuVvGjlkByXAQYGfbJ/OtqF2QDB7cj1q94E8J/8If4SWweRZLly01w6/dLkYwPYAAe+CeM4rPj6D6VrS6mNXoRXGhaTfEtNZiOQ9ZIDsJ/DpVUeDEjbdp+rSQn0kXH6qRWuvap0qmiVIxDovieEYivorhew83P/oQpjWXidR89oJP90J/iK3JeKqvPKn3JXX6MamxV0ZDW2vY+bS5PwT/69QSWOvN/zCZ/+/f/ANeth9SvF4W7nH0kNVZNWvx0vbn/AL+GlZjujLbRPEEvA0uUfUKP61G3hbxA33rZIlPd5FH8qtT6pfMMNeXB+srf41TjZriVhM7yADozE0ahdFefwzLCf9O1Szh9QH3n+lRR6Lp5IEX2u+b1C+Wn5nFa8NvEhykSA+y1eiHSkUY8mitBplzNiO2EcTMscAycgcZY/wBBUnwjJPibUCTkm0HJ/wB8Vq6kP+JJf/8AXu/8qyfhF/yMt/8A9eg/9DFLoNbnrlFFFSULRRRQAlVNV8/+yrwWtvHcz+Q/lQyY2SNg4Vs9ieDVuq2pXn9n6bdXnlSTfZ4nl8uMZZ9oztA9TQB5XJ4l1xrhU1zS/Cul3J/dqNUtZowQOm2TBQj/AIFXeeEYdRjs5pdQg0KNZirQtpAbY646sT19sVxknj3VNbt3S4guNGt3wPLTSZbyYjPOSwCDP+61dF8OrPR7O0vxo6alueVXuHvoTEXYg8quAAOvQentQBnReL9d1/4lSaTodvGuj6XMI7+VgNzdQeT05BAA5O0nOOnNHxD418fa/qr+FL9LTT9Ob90uQvmjJ287Tlm2k4PA/m/V7Lxb4K8TeIX0LSpb+111i6TxRM5hYljn5ehUu3Xg8Gr+j22p/Cz4bpLHpjXus6hd4MCZbyiyHbnaDuxt6Du2M0AdN8OfFdz4u8JvcXyqL23ka3mKjaHIAIbHbIPPuD06VXTjA7074W+Gb3w/4TkXVFKXl9M1xJGSMoCAAD78Z/HFWp7RrOTyrhSOyuOhFa02ZVVcjXtU6UiQFuUYNTxG6feUj8KtmaI5apS1clPWqc1SUU5epqlL3q7L3qlL3pAU5aS0HzP+FLLUcNwkBcvnB9KGNGlGKtRDpWIdawQILcyN9c/oKjefXLpSIka3Q9wNnH1PNTYu5s65d29no92lxMiSSwsiRk/MxPTj+tUPhEjf8JHftjj7KBn/AIGK5u7tra1Znv7vzZSeVjOST7mu/wDhroV7ayXGq3kDWkc0YitrdhhtuclmHbPGAeaTGtzv6KKKkoKKWigBKKKKACiiigApMfWlooABxTZI0kUq6hlPYinUUAZ0ujW5OYS0R9Acioxp91F9yVXHvxWrRT5mTyoxZUu1Hz2iyD2GaqSPEP8AW6VJ+Cn/AArpaKfMHKci82lj7+lz59Ax/wAagkudEA/5BN03/Aj/AI12tFFw5TgXudHP+r8P3Mhx33H/ABqPfI3/AB5+EznszRnj8wK9CopXCx5+NP8AFN2MQ2FpZoe7FR/Un9Kenw9v7451fWm2k8x26/1PH6V3tFFx2MHR/BeiaK6y21mrzr0mmPmOPoT0/DFb2KKKQwooooAKKWigAxRiiigAxRiiigAxRiiigAxRiiigAxRiiigAxRiiigAxRiiigAxRiiigAxRiiigAxRiiigAxRiiigAxRRRQB/9k=;" vertex="1" parent="1">
          <mxGeometry x="620" y="345" width="100" height="110" as="geometry" />
        </mxCell>
        <mxCell id="tm_iaFNtzYu6RqR7IWID-15" value="" style="shape=singleArrow;whiteSpace=wrap;html=1;" vertex="1" parent="1">
          <mxGeometry x="450" y="380" width="170" height="60" as="geometry" />
        </mxCell>
        <mxCell id="tm_iaFNtzYu6RqR7IWID-18" value="" style="shape=image;verticalLabelPosition=bottom;verticalAlign=top;imageAspect=0;image=https://clipground.com/images/analysis-png-13.png;" vertex="1" parent="1">
          <mxGeometry x="620" y="100" width="110" height="100" as="geometry" />
        </mxCell>
        <mxCell id="tm_iaFNtzYu6RqR7IWID-19" value="" style="shape=singleArrow;direction=north;whiteSpace=wrap;html=1;" vertex="1" parent="1">
          <mxGeometry x="645" y="190" width="60" height="170" as="geometry" />
        </mxCell>
        <mxCell id="tm_iaFNtzYu6RqR7IWID-20" value="Data Analysis using SQL" style="text;html=1;align=center;verticalAlign=middle;whiteSpace=wrap;rounded=0;" vertex="1" parent="1">
          <mxGeometry x="620" y="260" width="140" height="30" as="geometry" />
        </mxCell>
        <mxCell id="tm_iaFNtzYu6RqR7IWID-23" value="Data Loading" style="text;html=1;align=center;verticalAlign=middle;whiteSpace=wrap;rounded=0;" vertex="1" parent="1">
          <mxGeometry x="470" y="395" width="107.5" height="30" as="geometry" />
        </mxCell>
      </root>
    </mxGraphModel>
  </diagram>
</mxfile>
